<?xml version="1.0" encoding="utf-8"?>
<!-- Generator: Adobe Illustrator 17.0.0, SVG Export Plug-In . SVG Version: 6.00 Build 0)  -->
<!DOCTYPE svg PUBLIC "-//W3C//DTD SVG 1.1//EN" "http://www.w3.org/Graphics/SVG/1.1/DTD/svg11.dtd">
<svg version="1.1" id="Layer_1" xmlns="http://www.w3.org/2000/svg" xmlns:xlink="http://www.w3.org/1999/xlink" x="0px" y="0px"
	 width="700px" height="250px" viewBox="0 0 700 250" enable-background="new 0 0 700 250" xml:space="preserve">
<g>
	<path fill="#FFFFFF" d="M75.593,86.918c-2.998,0.098-5.873,0.63-8.628,1.595c-2.755,0.967-5.197,2.345-7.322,4.132
		c-2.127,1.79-3.82,3.915-5.075,6.38c-1.257,2.465-1.885,5.197-1.885,8.193v31.03h-4.93V82.133h4.205
		c0,0.388,0.022,1.305,0.073,2.755c0.047,1.45,0.072,2.997,0.072,4.64c0,1.645,0.022,3.167,0.072,4.568
		c0.048,1.402,0.073,2.248,0.073,2.537c2.223-4.833,5.583-8.627,10.078-11.382c4.495-2.755,9.208-4.18,14.137-4.277L75.593,86.918z"
		/>
	<path fill="#FFFFFF" d="M129.243,131.434c-2.61,2.417-5.68,4.327-9.208,5.728c-3.53,1.4-7.275,2.103-11.238,2.103
		c-4.06,0-7.88-0.775-11.455-2.32c-3.578-1.545-6.695-3.625-9.353-6.235c-2.66-2.61-4.738-5.678-6.235-9.208
		c-1.5-3.527-2.248-7.322-2.248-11.382s0.773-7.878,2.32-11.455c1.545-3.575,3.625-6.693,6.235-9.353
		c2.61-2.658,5.678-4.76,9.208-6.308c3.528-1.545,7.323-2.32,11.382-2.32c6.186,0,11.478,1.813,15.878,5.438
		c4.397,3.625,7.66,8.242,9.787,13.848c-3.48,1.354-7.25,2.852-11.31,4.495c-4.06,1.645-8.217,3.335-12.47,5.075
		c-4.255,1.74-8.46,3.458-12.615,5.147c-4.157,1.692-8.072,3.263-11.745,4.712c1.835,4.448,4.76,8.047,8.772,10.803
		c4.01,2.755,8.578,4.132,13.702,4.132c3.285,0,6.38-0.58,9.28-1.74c2.9-1.16,5.413-2.755,7.54-4.785L129.243,131.434z
		 M127.938,98.519c-1.74-3.865-4.277-6.96-7.612-9.28c-3.335-2.32-7.228-3.48-11.673-3.48c-3.385,0-6.55,0.653-9.497,1.958
		c-2.95,1.305-5.51,3.045-7.685,5.22c-2.175,2.175-3.893,4.737-5.147,7.685c-1.258,2.95-1.885,6.067-1.885,9.353
		c0,1.065,0.073,2.08,0.218,3.045c0.145,0.967,0.313,1.935,0.507,2.9c3.285-1.353,6.765-2.777,10.44-4.277
		c3.672-1.498,7.37-2.995,11.092-4.495c3.72-1.498,7.395-2.973,11.02-4.422C121.34,101.273,124.748,99.874,127.938,98.519z"/>
	<path fill="#FFFFFF" d="M143.451,110.119c0-4.155,0.748-8.022,2.248-11.6c1.498-3.575,3.575-6.67,6.235-9.28
		c2.657-2.61,5.75-4.663,9.28-6.163c3.527-1.498,7.322-2.248,11.382-2.248c2.995,0,5.8,0.412,8.41,1.232
		c2.61,0.822,4.953,1.958,7.033,3.408c2.077,1.45,3.915,3.117,5.51,5.002c1.595,1.885,2.828,3.892,3.698,6.018v-68.15h5.075v109.91
		h-5.075v-6.815c0-1.353,0.047-2.658,0.145-3.915c0.095-1.255,0.145-2.513,0.145-3.77c-2.03,4.35-5.22,8.025-9.57,11.02
		c-4.35,2.998-9.522,4.495-15.515,4.495c-4.157,0-8-0.775-11.527-2.32c-3.53-1.545-6.598-3.625-9.208-6.235s-4.64-5.678-6.09-9.208
		C144.176,117.974,143.451,114.179,143.451,110.119z M148.526,110.119c0,3.385,0.627,6.55,1.885,9.498
		c1.255,2.95,2.973,5.51,5.148,7.685c2.175,2.175,4.76,3.892,7.757,5.147c2.995,1.257,6.185,1.885,9.57,1.885
		c3.383,0,6.573-0.627,9.57-1.885c2.995-1.255,5.583-2.973,7.757-5.147c2.175-2.175,3.89-4.735,5.147-7.685
		c1.255-2.948,1.885-6.113,1.885-9.498c0-3.383-0.63-6.573-1.885-9.57c-1.257-2.995-2.973-5.583-5.147-7.757
		s-4.762-3.89-7.757-5.147c-2.998-1.255-6.188-1.885-9.57-1.885c-3.385,0-6.575,0.63-9.57,1.885
		c-2.998,1.257-5.583,2.973-7.757,5.147c-2.175,2.175-3.893,4.762-5.148,7.757C149.154,103.546,148.526,106.736,148.526,110.119z"/>
	<path fill="#FFFFFF" d="M226.97,57.483h5.075v25.52h17.69v4.495h-17.69v50.75h-5.075v-50.75h-12.325v-4.495h12.325V57.483z"/>
	<path fill="#FFFFFF" d="M304.979,131.434c-2.61,2.417-5.68,4.327-9.208,5.728c-3.529,1.4-7.274,2.103-11.237,2.103
		c-4.06,0-7.88-0.775-11.455-2.32c-3.578-1.545-6.695-3.625-9.353-6.235c-2.66-2.61-4.738-5.678-6.235-9.208
		c-1.5-3.527-2.248-7.322-2.248-11.382s0.773-7.878,2.32-11.455c1.545-3.575,3.625-6.693,6.235-9.353
		c2.61-2.658,5.678-4.76,9.208-6.308c3.528-1.545,7.323-2.32,11.382-2.32c6.186,0,11.478,1.813,15.877,5.438
		c4.397,3.625,7.66,8.242,9.788,13.848c-3.48,1.354-7.25,2.852-11.311,4.495c-4.06,1.645-8.217,3.335-12.47,5.075
		c-4.255,1.74-8.46,3.458-12.615,5.147c-4.157,1.692-8.072,3.263-11.745,4.712c1.835,4.448,4.76,8.047,8.772,10.803
		c4.01,2.755,8.578,4.132,13.702,4.132c3.285,0,6.38-0.58,9.28-1.74c2.9-1.16,5.413-2.755,7.54-4.785L304.979,131.434z
		 M303.675,98.519c-1.74-3.865-4.278-6.96-7.613-9.28c-3.334-2.32-7.227-3.48-11.672-3.48c-3.385,0-6.55,0.653-9.497,1.958
		c-2.95,1.305-5.51,3.045-7.685,5.22c-2.175,2.175-3.893,4.737-5.147,7.685c-1.258,2.95-1.885,6.067-1.885,9.353
		c0,1.065,0.073,2.08,0.218,3.045c0.145,0.967,0.313,1.935,0.507,2.9c3.285-1.353,6.765-2.777,10.44-4.277
		c3.672-1.498,7.37-2.995,11.092-4.495c3.72-1.498,7.395-2.973,11.02-4.422C297.077,101.273,300.484,99.874,303.675,98.519z"/>
	<path fill="#FFFFFF" d="M319.043,110.264c0-4.06,0.772-7.878,2.319-11.455c1.546-3.575,3.625-6.693,6.235-9.353
		c2.61-2.658,5.678-4.76,9.208-6.308c3.527-1.545,7.322-2.32,11.382-2.32c2.9,0,5.655,0.412,8.266,1.232
		c2.609,0.822,4.978,1.958,7.104,3.408c2.125,1.45,3.987,3.117,5.583,5.002c1.595,1.885,2.827,3.892,3.697,6.018
		c0-2.416,0.048-4.833,0.145-7.25c0.096-2.416,0.24-4.785,0.436-7.105h4.35v56.115h-4.93v-14.355
		c-1.646,4.255-4.641,7.88-8.99,10.875c-4.35,2.998-9.57,4.495-15.66,4.495c-4.157,0-8-0.775-11.527-2.32
		c-3.53-1.545-6.598-3.625-9.207-6.235c-2.61-2.61-4.665-5.678-6.163-9.208C319.79,117.974,319.043,114.229,319.043,110.264z
		 M323.973,110.119c0,3.385,0.628,6.55,1.885,9.498c1.256,2.95,2.973,5.51,5.147,7.685c2.176,2.175,4.761,3.892,7.758,5.147
		c2.995,1.257,6.186,1.885,9.57,1.885c3.382,0,6.572-0.627,9.569-1.885c2.995-1.255,5.605-2.973,7.83-5.147
		c2.223-2.175,3.963-4.735,5.221-7.685c1.255-2.948,1.885-6.113,1.885-9.498c0-3.383-0.63-6.573-1.885-9.57
		c-1.258-2.995-2.998-5.583-5.221-7.757c-2.225-2.175-4.835-3.89-7.83-5.147c-2.997-1.255-6.188-1.885-9.569-1.885
		c-3.385,0-6.575,0.63-9.57,1.885c-2.997,1.257-5.582,2.973-7.758,5.147c-2.175,2.175-3.892,4.762-5.147,7.757
		C324.601,103.546,323.973,106.736,323.973,110.119z"/>
	<path fill="#FFFFFF" d="M398.067,82.133h4.06c0,0.388,0.022,1.305,0.072,2.755c0.048,1.45,0.096,2.997,0.146,4.64
		c0.047,1.645,0.095,3.167,0.145,4.568c0.048,1.402,0.072,2.248,0.072,2.537c2.03-4.64,5.075-8.41,9.136-11.31
		c4.06-2.9,8.939-4.35,14.645-4.35c5.025,0,9.11,1.377,12.253,4.132c3.14,2.755,4.952,6.357,5.438,10.803
		c2.223-4.445,5.314-8.048,9.279-10.803c3.963-2.755,8.7-4.132,14.211-4.132c5.51,0,9.835,1.547,12.977,4.64
		c3.141,3.095,4.809,7.105,5.003,12.035v40.6h-5.075v-39.73c-0.194-3.383-1.402-6.283-3.625-8.7
		c-2.225-2.415-5.462-3.72-9.715-3.915c-3.095,0-5.995,0.508-8.7,1.523c-2.707,1.015-5.1,2.417-7.177,4.205
		c-2.08,1.79-3.748,3.915-5.003,6.38c-1.258,2.465-1.935,5.197-2.03,8.192v32.045h-4.93v-39.73c-0.195-3.383-1.428-6.283-3.697-8.7
		c-2.272-2.415-5.487-3.72-9.643-3.915c-3.19,0-6.163,0.533-8.918,1.595c-2.755,1.065-5.172,2.515-7.25,4.35
		c-2.08,1.837-3.723,4.06-4.93,6.67c-1.21,2.61-1.813,5.415-1.813,8.41v31.32h-4.93V82.133z"/>
	<path fill="#FFFFFF" d="M510.876,138.249h-5.074V28.338h5.074V138.249z"/>
	<path fill="#FFFFFF" d="M527.262,110.264c0-4.06,0.772-7.878,2.319-11.455c1.546-3.575,3.625-6.693,6.235-9.353
		c2.61-2.658,5.678-4.76,9.208-6.308c3.527-1.545,7.322-2.32,11.382-2.32c2.9,0,5.655,0.412,8.266,1.232
		c2.609,0.822,4.978,1.958,7.104,3.408c2.125,1.45,3.987,3.117,5.583,5.002c1.595,1.885,2.827,3.892,3.697,6.018
		c0-2.416,0.048-4.833,0.145-7.25c0.096-2.416,0.24-4.785,0.436-7.105h4.35v56.115h-4.93v-14.355
		c-1.646,4.255-4.641,7.88-8.99,10.875c-4.35,2.998-9.57,4.495-15.66,4.495c-4.157,0-8-0.775-11.527-2.32
		c-3.53-1.545-6.598-3.625-9.207-6.235c-2.61-2.61-4.665-5.678-6.163-9.208C528.009,117.974,527.262,114.229,527.262,110.264z
		 M532.191,110.119c0,3.385,0.628,6.55,1.885,9.498c1.256,2.95,2.973,5.51,5.147,7.685c2.176,2.175,4.761,3.892,7.758,5.147
		c2.995,1.257,6.186,1.885,9.57,1.885c3.382,0,6.572-0.627,9.569-1.885c2.995-1.255,5.605-2.973,7.83-5.147
		c2.223-2.175,3.963-4.735,5.221-7.685c1.255-2.948,1.885-6.113,1.885-9.498c0-3.383-0.63-6.573-1.885-9.57
		c-1.258-2.995-2.998-5.583-5.221-7.757c-2.225-2.175-4.835-3.89-7.83-5.147c-2.997-1.255-6.188-1.885-9.569-1.885
		c-3.385,0-6.575,0.63-9.57,1.885c-2.997,1.257-5.582,2.973-7.758,5.147c-2.175,2.175-3.892,4.762-5.147,7.757
		C532.819,103.546,532.191,106.736,532.191,110.119z"/>
	<path fill="#FFFFFF" d="M606.286,82.133h4.205c0,0.388,0.022,1.305,0.072,2.755c0.047,1.45,0.072,2.997,0.072,4.64
		c0,1.645,0.022,3.167,0.072,4.568c0.048,1.402,0.072,2.248,0.072,2.537c2.03-4.64,5.171-8.41,9.426-11.31
		c4.252-2.9,9.183-4.35,14.79-4.35c5.412,0,9.689,1.547,12.832,4.64c3.141,3.095,4.808,7.105,5.003,12.035v40.6h-5.075v-39.73
		c-0.195-3.383-1.402-6.283-3.625-8.7c-2.225-2.415-5.463-3.72-9.715-3.915c-3.19,0-6.188,0.533-8.99,1.595
		c-2.805,1.065-5.245,2.515-7.322,4.35c-2.08,1.837-3.748,4.06-5.003,6.67c-1.257,2.61-1.885,5.415-1.885,8.41v31.32h-4.93V82.133z"
		/>
</g>
<g>
	<path fill="#FFFFFF" d="M368.328,209.448l4.828,5.953v0.797c0,0.547-0.086,1.004-0.258,1.371c-0.173,0.367-0.508,0.566-1.008,0.598
		h-43.125c-0.578,0-1.066-0.094-1.465-0.281s-0.598-0.554-0.598-1.102v-1.383l4.898-5.953h-0.07V187.37
		c0-0.343,0.129-0.641,0.387-0.891c0.258-0.25,0.574-0.375,0.949-0.375h34.078c0.343,0,0.659,0.125,0.949,0.375
		c0.289,0.25,0.434,0.547,0.434,0.891V209.448z M333.852,188.471v19.43h32.227v-19.43H333.852z M340.133,210.948l-2.203,3.984
		h24.047l-2.063-3.984H340.133z"/>
</g>
</svg>
