<?xml version="1.0" encoding="utf-8"?>
<!-- Generator: Adobe Illustrator 17.0.0, SVG Export Plug-In . SVG Version: 6.00 Build 0)  -->
<!DOCTYPE svg PUBLIC "-//W3C//DTD SVG 1.1//EN" "http://www.w3.org/Graphics/SVG/1.1/DTD/svg11.dtd">
<svg version="1.1" id="Layer_1" xmlns="http://www.w3.org/2000/svg" xmlns:xlink="http://www.w3.org/1999/xlink" x="0px" y="0px"
	 width="445.086px" height="250px" viewBox="0 0 445.086 250" enable-background="new 0 0 445.086 250" xml:space="preserve">
<g>
	<path d="M240.941,209.448l4.828,5.953v0.797c0,0.547-0.086,1.004-0.258,1.371c-0.173,0.367-0.508,0.566-1.008,0.598h-43.125
		c-0.578,0-1.066-0.094-1.465-0.281s-0.598-0.554-0.598-1.102v-1.383l4.898-5.953h-0.07V187.37c0-0.343,0.129-0.641,0.387-0.891
		c0.258-0.25,0.574-0.375,0.949-0.375h34.078c0.343,0,0.659,0.125,0.949,0.375c0.289,0.25,0.434,0.547,0.434,0.891V209.448z
		 M206.465,188.471v19.43h32.227v-19.43H206.465z M212.746,210.948l-2.203,3.984h24.047l-2.063-3.984H212.746z"/>
</g>
<g>
	<path d="M67.975,139.699h-4.06l-0.435-15.08c-2.03,4.737-5.172,8.555-9.425,11.455c-4.255,2.9-9.185,4.35-14.79,4.35
		c-5.415,0-9.692-1.57-12.833-4.713c-3.142-3.14-4.81-7.177-5.002-12.107V83.148h4.93v39.585c0.192,3.385,1.425,6.285,3.697,8.7
		c2.271,2.417,5.533,3.77,9.788,4.06c3.19,0,6.163-0.53,8.917-1.595c2.755-1.063,5.195-2.512,7.323-4.35
		c2.125-1.835,3.792-4.035,5.002-6.598c1.208-2.56,1.813-5.388,1.813-8.482v-31.32h5.075V139.699z"/>
	<path d="M88.272,83.148h4.205c0,0.388,0.022,1.305,0.073,2.755c0.047,1.45,0.072,2.997,0.072,4.64c0,1.645,0.022,3.167,0.072,4.568
		c0.048,1.402,0.073,2.248,0.073,2.537c2.03-4.64,5.17-8.41,9.425-11.31c4.253-2.9,9.183-4.35,14.79-4.35
		c5.413,0,9.69,1.547,12.833,4.64c3.14,3.095,4.808,7.105,5.002,12.035v40.6h-5.075v-39.73c-0.195-3.383-1.402-6.283-3.625-8.7
		c-2.225-2.415-5.462-3.72-9.715-3.915c-3.19,0-6.187,0.533-8.99,1.595c-2.805,1.065-5.245,2.515-7.323,4.35
		c-2.08,1.837-3.747,4.06-5.002,6.67c-1.257,2.61-1.885,5.415-1.885,8.41v31.32h-4.93V83.148z"/>
	<path d="M158.161,139.264V36.749h6.09v96.715h56.84v5.8H158.161z"/>
	<path d="M306.496,139.264c-2.515-6.09-5.197-12.663-8.048-19.72c-2.853-7.055-5.728-14.355-8.627-21.895h-41.47
		c-2.9,7.54-5.752,14.84-8.555,21.895c-2.805,7.058-5.462,13.63-7.975,19.72h-6.09c2.03-4.735,4.228-10.005,6.598-15.805
		c2.368-5.8,4.833-11.89,7.395-18.27c2.56-6.38,5.147-12.88,7.757-19.502c2.61-6.62,5.195-13.123,7.758-19.502
		c2.56-6.38,5.025-12.493,7.395-18.342c2.367-5.848,4.567-11.14,6.598-15.877c1.933,4.737,4.082,10.03,6.452,15.877
		c2.367,5.85,4.832,11.962,7.395,18.342c2.561,6.38,5.147,12.882,7.758,19.502c2.61,6.623,5.195,13.123,7.758,19.502
		c2.56,6.38,5.025,12.47,7.395,18.27c2.368,5.8,4.567,11.07,6.598,15.805H306.496z M267.781,48.929
		c-2.708,6.38-5.51,13.268-8.41,20.663c-2.9,7.395-5.897,15.007-8.99,22.837h37.41c-2.997-7.83-5.97-15.442-8.918-22.837
		c-2.949-7.395-5.727-14.283-8.337-20.663l-1.305-4.205c-0.195,0.775-0.436,1.547-0.726,2.32
		C268.216,47.818,267.974,48.446,267.781,48.929z"/>
	<path d="M417.131,36.749v107.155c-5.51-6.863-11.697-14.355-18.56-22.475c-6.865-8.12-13.8-16.385-20.808-24.795
		c-7.01-8.41-13.8-16.65-20.372-24.723c-6.575-8.07-12.375-15.442-17.4-22.112l-2.755-3.77l0.435,4.64v88.595h-6.09v-107.3
		c5.605,7.057,11.768,14.645,18.487,22.765c6.718,8.12,13.558,16.337,20.518,24.65c6.96,8.314,13.75,16.482,20.373,24.505
		c6.62,8.025,12.59,15.42,17.907,22.185l2.755,3.77l-0.435-4.64v-88.45H417.131z"/>
</g>
<line fill="none" x1="184.209" y1="227.333" x2="260.876" y2="150.667"/>
<g>
	<g>
		<path d="M191.98,236.429c21.554-21.554,43.107-43.107,64.661-64.661c2.282-2.282-1.254-5.817-3.536-3.536
			c-21.554,21.554-43.107,43.107-64.661,64.661C186.163,235.175,189.698,238.711,191.98,236.429L191.98,236.429z"/>
	</g>
</g>
</svg>
